<?xml version="1.0" encoding="UTF-8" standalone="no"?>
<svg
   xmlns:dc="http://purl.org/dc/elements/1.1/"
   xmlns:cc="http://creativecommons.org/ns#"
   xmlns:rdf="http://www.w3.org/1999/02/22-rdf-syntax-ns#"
   xmlns:svg="http://www.w3.org/2000/svg"
   xmlns="http://www.w3.org/2000/svg"
   id="svg4556"
   version="1.1"
   width="48"
   viewBox="0 -30 512 512"
   height="48">
  <metadata
     id="metadata4562">
    <rdf:RDF>
      <cc:Work
         rdf:about="">
        <dc:format>image/svg+xml</dc:format>
        <dc:type
           rdf:resource="http://purl.org/dc/dcmitype/StillImage" />
        <dc:title></dc:title>
      </cc:Work>
    </rdf:RDF>
  </metadata>
  <defs
     id="defs4560" />
  <linearGradient
     y2="452"
     y1="0"
     x2="256"
     x1="256"
     gradientUnits="userSpaceOnUse"
     id="a">
    <stop
       id="stop4549"
       stop-color="#2af598"
       offset="0" />
    <stop
       id="stop4551"
       stop-color="#009efd"
       offset="1" />
  </linearGradient>
  <path
     id="path4554"
     fill="url(#a)"
     d="m0 160h40v132h-40zm79 212h40v-292h-40zm78 80h40v-452h-40zm78-160h40v-132h-40zm79 110h40v-352h-40zm158-242v142h40v-142zm-79 292h40v-452h-40zm0 0" />
  <g
     transform="matrix(11.939618,0,0,11.939618,221.19922,189.0297)"
     id="g5129">
    <circle
       style="fill:#ffd54f"
       cx="11.954574"
       cy="12.272558"
       r="12"
       id="circle5107" />
    <g
       style="fill:#6d4c41"
       id="g5115">
      <circle
         cx="7"
         cy="15"
         r="2"
         id="circle5109" />
      <circle
         cx="17"
         cy="15"
         r="2"
         id="circle5111" />
      <path
         d="m 17,7.536 c -0.192,0 -0.384,-0.073 -0.53,-0.22 C 15.276,6.122 13.688,5.464 12,5.464 10.312,5.464 8.724,6.122 7.53,7.316 7.237,7.609 6.762,7.609 6.469,7.316 6.176,7.023 6.176,6.548 6.469,6.255 7.947,4.778 9.911,3.964 12,3.964 c 2.089,0 4.053,0.813 5.53,2.291 0.293,0.293 0.293,0.768 0,1.061 -0.146,0.146 -0.338,0.22 -0.53,0.22 z"
         id="path5113" />
    </g>
  </g>
</svg>
